# xmcd
#
# Track frame offsets: 
#        150
#        16914
#        43917
#        56802
#        73837
#        89897
#        106993
#        123684
#        142114
#        156452
#        169802
#        185244
#        202010
#        218961
#        235051
#        251343
#        267454
#        284400
#        300113
#        313202
#
# Disc length: 4393 seconds
#
# Revision: 0
# Processed by: cddbd v1.5.2PL0 Copyright (c) Steve Scherf et al.
# Submitted via: ExactAudioCopy v0.99pb4
#
DISCID=43112714
DTITLE=Various Artist - The Very Best of Rare Groove - Volumes 5 and 6
DYEAR=1900
DGENRE=Rare Groove
TTITLE0=Maxi - Lover to Lover
TTITLE1=Jeanie Reynolds - The Fruit Song
TTITLE2=Rita Wright - Touch Me
TTITLE3=Jeffree - Mr. Fix It
TTITLE4=Rickard 'Dimples' Field - Like Your Loving
TTITLE5=Geraldine Hunt - Undercover Lover
TTITLE6=Milton Wright - Keep It Up
TTITLE7=Nayobe -  Who Do I Call
TTITLE8=Betty Swann - Make Me Yours
TTITLE9=Mr. Gee - Stay With Me
TTITLE10=Fredrick - Games
TTITLE11=The Blackbirds - Love Doesn't Strike Twice
TTITLE12=Rene and Angela - You Don't Have to Cry
TTITLE13=Debra Lewis - Your Love
TTITLE14=The Jones Girls - Children of the Night
TTITLE15=L.J. Reynolds - Key to the World
TTITLE16=Carl Anderson - Butter Cup
TTITLE17=Natalie Cole - Annie Mae
TTITLE18=Howard Johnson - Keeping Love New
TTITLE19=Cerrone - Music of Life
EXTD=
EXTT0=
EXTT1=
EXTT2=
EXTT3=
EXTT4=
EXTT5=
EXTT6=
EXTT7=
EXTT8=
EXTT9=
EXTT10=
EXTT11=
EXTT12=
EXTT13=
EXTT14=
EXTT15=
EXTT16=
EXTT17=
EXTT18=
EXTT19=
PLAYORDER=
